<svg width="500" height="500" viewBox="0 0 500 500" xmlns="http://www.w3.org/2000/svg">
<rect x="0" y="0" width="500" height="500" opacity="1" fill="#FFFFFF" stroke="none"/>
<polyline fill="none" opacity="1" stroke="#FF0000" stroke-width="1" points="22,187 23,187 23,175 27,175 27,162 35,162 35,157 43,157 43,155 35,155 35,143 23,143 23,139 8,139 8,128 0,128 0,125 7,125 7,113 11,113 11,110 18,110 18,113 27,113 27,103 29,103 29,99 38,99 38,86 52,86 52,99 54,99 54,103 71,103 71,95 67,95 67,89 82,89 82,74 90,74 90,70 83,70 83,63 84,63 84,48 83,48 83,48 75,48 75,48 77,48 77,61 75,61 75,70 67,70 67,62 54,62 54,61 71,61 71,53 53,53 53,55 50,55 50,73 46,73 46,77 33,77 33,66 15,66 15,55 14,55 14,53 0,53 0,48 5,48 5,36 13,36 13,20 23,20 23,19 24,19 24,19 32,19 32,17 43,17 43,7 50,7 50,0 55,0 55,4 59,4 59,23 67,23 67,24 79,24 79,26 86,26 86,29 92,29 92,38 93,38 93,59 95,59 95,60 110,60 110,69 119,69 119,76 105,76 105,93 92,93 92,95 102,95 102,106 107,106 107,111 120,111 120,121 116,121 116,137 116,137 116,138 98,138 98,145 106,145 106,156 116,156 116,145 120,145 120,151 127,151 127,140 138,140 138,122 142,122 142,111 152,111 152,107 163,107 163,116 146,116 146,121 144,121 144,129 163,129 163,135 166,135 166,138 168,138 168,133 173,133 173,127 176,127 176,118 173,118 173,107 183,107 183,99 195,99 195,89 201,89 201,78 210,78 210,72 199,72 199,63 210,63 210,55 219,55 219,43 204,43 204,41 189,41 189,29 183,29 183,23 191,23 191,10 203,10 203,7 208,7 208,0 222,0 222,14 218,14 218,13 205,13 205,14 194,14 194,22 208,22 208,27 222,27 222,36 230,36 230,38 225,38 225,54 230,54 230,67 243,67 243,68 251,68 251,87 259,87 259,91 271,91 271,75 286,75 286,62 287,62 287,43 295,43 295,52 299,52 299,58 291,58 291,74 299,74 299,75 310,75 310,91 311,91 311,78 313,78 313,68 318,68 318,60 334,60 334,68 336,68 336,58 342,58 342,40 353,40 353,55 356,55 356,61 366,61 366,58 373,58 373,61 380,61 380,55 383,55 383,68 384,68 384,73 367,73 367,82 366,82 366,89 384,89 384,94 381,94 381,99 390,99 390,114 381,114 381,128 369,128 369,141 363,141 363,127 357,127 357,125 342,125 342,135 333,135 333,141 323,141 323,128 313,128 313,128 305,128 305,145 313,145 313,152 306,152 306,154 295,154 295,142 292,142 292,137 295,137 295,128 295,128 295,112 288,112 288,112 282,112 282,112 269,112 269,94 265,94 265,102 260,102 260,106 257,106 257,125 260,125 260,128 267,128 267,133 277,133 277,138 290,138 290,148 280,148 280,153 267,153 267,164 260,164 260,166 255,166 255,171 245,171 245,166 232,166 232,166 230,166 230,187 238,187 238,188 254,188 254,187 260,187 260,188 274,188 274,187 277,187 277,190 280,190 280,184 283,184 283,176 288,176 288,182 301,182 301,190 307,190 307,202 309,202 309,206 325,206 325,217 337,217 337,228 352,228 352,239 337,239 337,241 325,241 325,244 336,244 336,259 348,259 348,264 361,264 361,276 369,276 369,293 381,293 381,276 386,276 386,288 394,288 394,305 408,305 408,322 420,322 420,337 428,337 428,330 429,330 429,317 428,317 428,308 429,308 429,295 432,295 432,284 434,284 434,280 453,280 453,278 460,278 460,276 468,276 468,274 472,274 472,276 484,276 484,279 470,279 470,293 461,293 461,307 453,307 453,313 456,313 456,332 460,332 460,323 470,323 470,313 479,313 479,323 492,323 492,332 499,332 499,345 491,345 491,350 484,350 484,364 493,364 493,368 484,368 484,379 491,379 491,386 482,386 482,383 474,383 474,371 475,371 475,363 474,363 474,357 464,357 464,345 453,345 453,345 463,345 463,359 470,359 470,368 465,368 465,365 453,365 453,368 444,368 444,373 440,373 440,380 428,380 428,391 423,391 423,399 410,399 410,400 394,400 394,399 394,399 394,391 391,391 391,399 392,399 392,411 402,411 402,415 403,415 403,426 408,426 408,410 422,410 422,409 428,409 428,426 436,426 436,427 440,427 440,431 444,431 444,443 429,443 429,447 428,447 428,454 425,454 425,463 420,463 420,475 405,475 405,486 400,486 400,488 392,488 392,480 389,480 389,488 373,488 373,480 370,480 370,488 356,488 356,486 346,486 346,481 357,481 357,466 346,466 346,447 337,447 337,437 347,437 347,432 337,432 337,423 348,423 348,414 360,414 360,407 356,407 356,394 347,394 347,383 337,383 337,368 336,368 336,371 331,371 331,381 318,381 318,391 313,391 313,391 301,391 301,397 300,397 300,410 311,410 311,410 311,410 311,404 324,404 324,410 333,410 333,410 336,410 336,420 320,420 320,426 318,426 318,440 313,440 313,448 311,448 311,454 300,454 300,454 290,454 290,470 277,470 277,472 276,472 276,465 265,465 265,451 259,451 259,472 252,472 252,485 251,485 251,498 241,498 241,499 230,499 230,491 220,491 220,484 213,484 213,468 220,468 220,467 230,467 230,460 213,460 213,457 204,457 204,475 197,475 197,476 191,476 191,491 189,491 189,499 179,499 179,490 177,490 177,474 174,474 174,472 171,472 171,468 160,468 160,451 156,451 156,449 152,449 152,437 164,437 164,434 152,434 152,422 141,422 141,421 127,421 127,413 111,413 111,404 112,404 112,392 116,392 116,384 125,384 125,381 111,381 111,370 107,370 107,359 117,359 117,350 105,350 105,346 92,346 92,344 98,344 98,336 104,336 104,326 113,326 113,344 114,344 114,332 117,332 117,329 124,329 124,319 141,319 141,313 143,313 143,306 149,306 149,297 136,297 136,311 123,311 123,319 115,319 115,311 109,311 109,297 107,297 107,288 88,288 88,279 77,279 77,277 70,277 70,267 77,267 77,256 68,256 68,244 55,244 55,227 48,227 48,224 46,224 46,211 44,211 44,223 31,223 31,211 25,211 25,205 22,205 22,187 22,187 "/>
<line opacity="0.1" stroke="#000000" stroke-width="1" x1="0" y1="499" x2="0" y2="0"/>
<line opacity="0.1" stroke="#000000" stroke-width="1" x1="6" y1="499" x2="6" y2="0"/>
<line opacity="0.1" stroke="#000000" stroke-width="1" x1="11" y1="499" x2="11" y2="0"/>
<line opacity="0.1" stroke="#000000" stroke-width="1" x1="16" y1="499" x2="16" y2="0"/>
<line opacity="0.1" stroke="#000000" stroke-width="1" x1="22" y1="499" x2="22" y2="0"/>
<line opacity="0.1" stroke="#000000" stroke-width="1" x1="27" y1="499" x2="27" y2="0"/>
<line opacity="0.1" stroke="#000000" stroke-width="1" x1="33" y1="499" x2="33" y2="0"/>
<line opacity="0.1" stroke="#000000" stroke-width="1" x1="38" y1="499" x2="38" y2="0"/>
<line opacity="0.1" stroke="#000000" stroke-width="1" x1="43" y1="499" x2="43" y2="0"/>
<line opacity="0.1" stroke="#000000" stroke-width="1" x1="49" y1="499" x2="49" y2="0"/>
<line opacity="0.1" stroke="#000000" stroke-width="1" x1="54" y1="499" x2="54" y2="0"/>
<line opacity="0.1" stroke="#000000" stroke-width="1" x1="60" y1="499" x2="60" y2="0"/>
<line opacity="0.1" stroke="#000000" stroke-width="1" x1="65" y1="499" x2="65" y2="0"/>
<line opacity="0.1" stroke="#000000" stroke-width="1" x1="70" y1="499" x2="70" y2="0"/>
<line opacity="0.1" stroke="#000000" stroke-width="1" x1="76" y1="499" x2="76" y2="0"/>
<line opacity="0.1" stroke="#000000" stroke-width="1" x1="81" y1="499" x2="81" y2="0"/>
<line opacity="0.1" stroke="#000000" stroke-width="1" x1="86" y1="499" x2="86" y2="0"/>
<line opacity="0.1" stroke="#000000" stroke-width="1" x1="92" y1="499" x2="92" y2="0"/>
<line opacity="0.1" stroke="#000000" stroke-width="1" x1="97" y1="499" x2="97" y2="0"/>
<line opacity="0.1" stroke="#000000" stroke-width="1" x1="103" y1="499" x2="103" y2="0"/>
<line opacity="0.1" stroke="#000000" stroke-width="1" x1="108" y1="499" x2="108" y2="0"/>
<line opacity="0.1" stroke="#000000" stroke-width="1" x1="113" y1="499" x2="113" y2="0"/>
<line opacity="0.1" stroke="#000000" stroke-width="1" x1="119" y1="499" x2="119" y2="0"/>
<line opacity="0.1" stroke="#000000" stroke-width="1" x1="124" y1="499" x2="124" y2="0"/>
<line opacity="0.1" stroke="#000000" stroke-width="1" x1="130" y1="499" x2="130" y2="0"/>
<line opacity="0.1" stroke="#000000" stroke-width="1" x1="135" y1="499" x2="135" y2="0"/>
<line opacity="0.1" stroke="#000000" stroke-width="1" x1="140" y1="499" x2="140" y2="0"/>
<line opacity="0.1" stroke="#000000" stroke-width="1" x1="146" y1="499" x2="146" y2="0"/>
<line opacity="0.1" stroke="#000000" stroke-width="1" x1="151" y1="499" x2="151" y2="0"/>
<line opacity="0.1" stroke="#000000" stroke-width="1" x1="156" y1="499" x2="156" y2="0"/>
<line opacity="0.1" stroke="#000000" stroke-width="1" x1="162" y1="499" x2="162" y2="0"/>
<line opacity="0.1" stroke="#000000" stroke-width="1" x1="167" y1="499" x2="167" y2="0"/>
<line opacity="0.1" stroke="#000000" stroke-width="1" x1="173" y1="499" x2="173" y2="0"/>
<line opacity="0.1" stroke="#000000" stroke-width="1" x1="178" y1="499" x2="178" y2="0"/>
<line opacity="0.1" stroke="#000000" stroke-width="1" x1="183" y1="499" x2="183" y2="0"/>
<line opacity="0.1" stroke="#000000" stroke-width="1" x1="189" y1="499" x2="189" y2="0"/>
<line opacity="0.1" stroke="#000000" stroke-width="1" x1="194" y1="499" x2="194" y2="0"/>
<line opacity="0.1" stroke="#000000" stroke-width="1" x1="199" y1="499" x2="199" y2="0"/>
<line opacity="0.1" stroke="#000000" stroke-width="1" x1="205" y1="499" x2="205" y2="0"/>
<line opacity="0.1" stroke="#000000" stroke-width="1" x1="210" y1="499" x2="210" y2="0"/>
<line opacity="0.1" stroke="#000000" stroke-width="1" x1="216" y1="499" x2="216" y2="0"/>
<line opacity="0.1" stroke="#000000" stroke-width="1" x1="221" y1="499" x2="221" y2="0"/>
<line opacity="0.1" stroke="#000000" stroke-width="1" x1="226" y1="499" x2="226" y2="0"/>
<line opacity="0.1" stroke="#000000" stroke-width="1" x1="232" y1="499" x2="232" y2="0"/>
<line opacity="0.1" stroke="#000000" stroke-width="1" x1="237" y1="499" x2="237" y2="0"/>
<line opacity="0.1" stroke="#000000" stroke-width="1" x1="243" y1="499" x2="243" y2="0"/>
<line opacity="0.1" stroke="#000000" stroke-width="1" x1="248" y1="499" x2="248" y2="0"/>
<line opacity="0.1" stroke="#000000" stroke-width="1" x1="253" y1="499" x2="253" y2="0"/>
<line opacity="0.1" stroke="#000000" stroke-width="1" x1="259" y1="499" x2="259" y2="0"/>
<line opacity="0.1" stroke="#000000" stroke-width="1" x1="264" y1="499" x2="264" y2="0"/>
<line opacity="0.1" stroke="#000000" stroke-width="1" x1="269" y1="499" x2="269" y2="0"/>
<line opacity="0.1" stroke="#000000" stroke-width="1" x1="275" y1="499" x2="275" y2="0"/>
<line opacity="0.1" stroke="#000000" stroke-width="1" x1="280" y1="499" x2="280" y2="0"/>
<line opacity="0.1" stroke="#000000" stroke-width="1" x1="286" y1="499" x2="286" y2="0"/>
<line opacity="0.1" stroke="#000000" stroke-width="1" x1="291" y1="499" x2="291" y2="0"/>
<line opacity="0.1" stroke="#000000" stroke-width="1" x1="296" y1="499" x2="296" y2="0"/>
<line opacity="0.1" stroke="#000000" stroke-width="1" x1="302" y1="499" x2="302" y2="0"/>
<line opacity="0.1" stroke="#000000" stroke-width="1" x1="307" y1="499" x2="307" y2="0"/>
<line opacity="0.1" stroke="#000000" stroke-width="1" x1="313" y1="499" x2="313" y2="0"/>
<line opacity="0.1" stroke="#000000" stroke-width="1" x1="318" y1="499" x2="318" y2="0"/>
<line opacity="0.1" stroke="#000000" stroke-width="1" x1="323" y1="499" x2="323" y2="0"/>
<line opacity="0.1" stroke="#000000" stroke-width="1" x1="329" y1="499" x2="329" y2="0"/>
<line opacity="0.1" stroke="#000000" stroke-width="1" x1="334" y1="499" x2="334" y2="0"/>
<line opacity="0.1" stroke="#000000" stroke-width="1" x1="339" y1="499" x2="339" y2="0"/>
<line opacity="0.1" stroke="#000000" stroke-width="1" x1="345" y1="499" x2="345" y2="0"/>
<line opacity="0.1" stroke="#000000" stroke-width="1" x1="350" y1="499" x2="350" y2="0"/>
<line opacity="0.1" stroke="#000000" stroke-width="1" x1="356" y1="499" x2="356" y2="0"/>
<line opacity="0.1" stroke="#000000" stroke-width="1" x1="361" y1="499" x2="361" y2="0"/>
<line opacity="0.1" stroke="#000000" stroke-width="1" x1="366" y1="499" x2="366" y2="0"/>
<line opacity="0.1" stroke="#000000" stroke-width="1" x1="372" y1="499" x2="372" y2="0"/>
<line opacity="0.1" stroke="#000000" stroke-width="1" x1="377" y1="499" x2="377" y2="0"/>
<line opacity="0.1" stroke="#000000" stroke-width="1" x1="383" y1="499" x2="383" y2="0"/>
<line opacity="0.1" stroke="#000000" stroke-width="1" x1="388" y1="499" x2="388" y2="0"/>
<line opacity="0.1" stroke="#000000" stroke-width="1" x1="393" y1="499" x2="393" y2="0"/>
<line opacity="0.1" stroke="#000000" stroke-width="1" x1="399" y1="499" x2="399" y2="0"/>
<line opacity="0.1" stroke="#000000" stroke-width="1" x1="404" y1="499" x2="404" y2="0"/>
<line opacity="0.1" stroke="#000000" stroke-width="1" x1="409" y1="499" x2="409" y2="0"/>
<line opacity="0.1" stroke="#000000" stroke-width="1" x1="415" y1="499" x2="415" y2="0"/>
<line opacity="0.1" stroke="#000000" stroke-width="1" x1="420" y1="499" x2="420" y2="0"/>
<line opacity="0.1" stroke="#000000" stroke-width="1" x1="426" y1="499" x2="426" y2="0"/>
<line opacity="0.1" stroke="#000000" stroke-width="1" x1="431" y1="499" x2="431" y2="0"/>
<line opacity="0.1" stroke="#000000" stroke-width="1" x1="436" y1="499" x2="436" y2="0"/>
<line opacity="0.1" stroke="#000000" stroke-width="1" x1="442" y1="499" x2="442" y2="0"/>
<line opacity="0.1" stroke="#000000" stroke-width="1" x1="447" y1="499" x2="447" y2="0"/>
<line opacity="0.1" stroke="#000000" stroke-width="1" x1="453" y1="499" x2="453" y2="0"/>
<line opacity="0.1" stroke="#000000" stroke-width="1" x1="458" y1="499" x2="458" y2="0"/>
<line opacity="0.1" stroke="#000000" stroke-width="1" x1="463" y1="499" x2="463" y2="0"/>
<line opacity="0.1" stroke="#000000" stroke-width="1" x1="469" y1="499" x2="469" y2="0"/>
<line opacity="0.1" stroke="#000000" stroke-width="1" x1="474" y1="499" x2="474" y2="0"/>
<line opacity="0.1" stroke="#000000" stroke-width="1" x1="479" y1="499" x2="479" y2="0"/>
<line opacity="0.1" stroke="#000000" stroke-width="1" x1="485" y1="499" x2="485" y2="0"/>
<line opacity="0.1" stroke="#000000" stroke-width="1" x1="490" y1="499" x2="490" y2="0"/>
<line opacity="0.1" stroke="#000000" stroke-width="1" x1="496" y1="499" x2="496" y2="0"/>
<line opacity="0.1" stroke="#000000" stroke-width="1" x1="0" y1="499" x2="499" y2="499"/>
<line opacity="0.1" stroke="#000000" stroke-width="1" x1="0" y1="493" x2="499" y2="493"/>
<line opacity="0.1" stroke="#000000" stroke-width="1" x1="0" y1="487" x2="499" y2="487"/>
<line opacity="0.1" stroke="#000000" stroke-width="1" x1="0" y1="481" x2="499" y2="481"/>
<line opacity="0.1" stroke="#000000" stroke-width="1" x1="0" y1="475" x2="499" y2="475"/>
<line opacity="0.1" stroke="#000000" stroke-width="1" x1="0" y1="469" x2="499" y2="469"/>
<line opacity="0.1" stroke="#000000" stroke-width="1" x1="0" y1="463" x2="499" y2="463"/>
<line opacity="0.1" stroke="#000000" stroke-width="1" x1="0" y1="457" x2="499" y2="457"/>
<line opacity="0.1" stroke="#000000" stroke-width="1" x1="0" y1="451" x2="499" y2="451"/>
<line opacity="0.1" stroke="#000000" stroke-width="1" x1="0" y1="445" x2="499" y2="445"/>
<line opacity="0.1" stroke="#000000" stroke-width="1" x1="0" y1="439" x2="499" y2="439"/>
<line opacity="0.1" stroke="#000000" stroke-width="1" x1="0" y1="433" x2="499" y2="433"/>
<line opacity="0.1" stroke="#000000" stroke-width="1" x1="0" y1="427" x2="499" y2="427"/>
<line opacity="0.1" stroke="#000000" stroke-width="1" x1="0" y1="421" x2="499" y2="421"/>
<line opacity="0.1" stroke="#000000" stroke-width="1" x1="0" y1="415" x2="499" y2="415"/>
<line opacity="0.1" stroke="#000000" stroke-width="1" x1="0" y1="409" x2="499" y2="409"/>
<line opacity="0.1" stroke="#000000" stroke-width="1" x1="0" y1="403" x2="499" y2="403"/>
<line opacity="0.1" stroke="#000000" stroke-width="1" x1="0" y1="397" x2="499" y2="397"/>
<line opacity="0.1" stroke="#000000" stroke-width="1" x1="0" y1="391" x2="499" y2="391"/>
<line opacity="0.1" stroke="#000000" stroke-width="1" x1="0" y1="385" x2="499" y2="385"/>
<line opacity="0.1" stroke="#000000" stroke-width="1" x1="0" y1="379" x2="499" y2="379"/>
<line opacity="0.1" stroke="#000000" stroke-width="1" x1="0" y1="373" x2="499" y2="373"/>
<line opacity="0.1" stroke="#000000" stroke-width="1" x1="0" y1="367" x2="499" y2="367"/>
<line opacity="0.1" stroke="#000000" stroke-width="1" x1="0" y1="361" x2="499" y2="361"/>
<line opacity="0.1" stroke="#000000" stroke-width="1" x1="0" y1="355" x2="499" y2="355"/>
<line opacity="0.1" stroke="#000000" stroke-width="1" x1="0" y1="349" x2="499" y2="349"/>
<line opacity="0.1" stroke="#000000" stroke-width="1" x1="0" y1="343" x2="499" y2="343"/>
<line opacity="0.1" stroke="#000000" stroke-width="1" x1="0" y1="337" x2="499" y2="337"/>
<line opacity="0.1" stroke="#000000" stroke-width="1" x1="0" y1="331" x2="499" y2="331"/>
<line opacity="0.1" stroke="#000000" stroke-width="1" x1="0" y1="325" x2="499" y2="325"/>
<line opacity="0.1" stroke="#000000" stroke-width="1" x1="0" y1="319" x2="499" y2="319"/>
<line opacity="0.1" stroke="#000000" stroke-width="1" x1="0" y1="313" x2="499" y2="313"/>
<line opacity="0.1" stroke="#000000" stroke-width="1" x1="0" y1="307" x2="499" y2="307"/>
<line opacity="0.1" stroke="#000000" stroke-width="1" x1="0" y1="301" x2="499" y2="301"/>
<line opacity="0.1" stroke="#000000" stroke-width="1" x1="0" y1="295" x2="499" y2="295"/>
<line opacity="0.1" stroke="#000000" stroke-width="1" x1="0" y1="289" x2="499" y2="289"/>
<line opacity="0.1" stroke="#000000" stroke-width="1" x1="0" y1="283" x2="499" y2="283"/>
<line opacity="0.1" stroke="#000000" stroke-width="1" x1="0" y1="277" x2="499" y2="277"/>
<line opacity="0.1" stroke="#000000" stroke-width="1" x1="0" y1="271" x2="499" y2="271"/>
<line opacity="0.1" stroke="#000000" stroke-width="1" x1="0" y1="265" x2="499" y2="265"/>
<line opacity="0.1" stroke="#000000" stroke-width="1" x1="0" y1="259" x2="499" y2="259"/>
<line opacity="0.1" stroke="#000000" stroke-width="1" x1="0" y1="253" x2="499" y2="253"/>
<line opacity="0.1" stroke="#000000" stroke-width="1" x1="0" y1="247" x2="499" y2="247"/>
<line opacity="0.1" stroke="#000000" stroke-width="1" x1="0" y1="241" x2="499" y2="241"/>
<line opacity="0.1" stroke="#000000" stroke-width="1" x1="0" y1="235" x2="499" y2="235"/>
<line opacity="0.1" stroke="#000000" stroke-width="1" x1="0" y1="229" x2="499" y2="229"/>
<line opacity="0.1" stroke="#000000" stroke-width="1" x1="0" y1="223" x2="499" y2="223"/>
<line opacity="0.1" stroke="#000000" stroke-width="1" x1="0" y1="217" x2="499" y2="217"/>
<line opacity="0.1" stroke="#000000" stroke-width="1" x1="0" y1="211" x2="499" y2="211"/>
<line opacity="0.1" stroke="#000000" stroke-width="1" x1="0" y1="205" x2="499" y2="205"/>
<line opacity="0.1" stroke="#000000" stroke-width="1" x1="0" y1="199" x2="499" y2="199"/>
<line opacity="0.1" stroke="#000000" stroke-width="1" x1="0" y1="193" x2="499" y2="193"/>
<line opacity="0.1" stroke="#000000" stroke-width="1" x1="0" y1="187" x2="499" y2="187"/>
<line opacity="0.1" stroke="#000000" stroke-width="1" x1="0" y1="181" x2="499" y2="181"/>
<line opacity="0.1" stroke="#000000" stroke-width="1" x1="0" y1="175" x2="499" y2="175"/>
<line opacity="0.1" stroke="#000000" stroke-width="1" x1="0" y1="169" x2="499" y2="169"/>
<line opacity="0.1" stroke="#000000" stroke-width="1" x1="0" y1="163" x2="499" y2="163"/>
<line opacity="0.1" stroke="#000000" stroke-width="1" x1="0" y1="157" x2="499" y2="157"/>
<line opacity="0.1" stroke="#000000" stroke-width="1" x1="0" y1="151" x2="499" y2="151"/>
<line opacity="0.1" stroke="#000000" stroke-width="1" x1="0" y1="145" x2="499" y2="145"/>
<line opacity="0.1" stroke="#000000" stroke-width="1" x1="0" y1="139" x2="499" y2="139"/>
<line opacity="0.1" stroke="#000000" stroke-width="1" x1="0" y1="133" x2="499" y2="133"/>
<line opacity="0.1" stroke="#000000" stroke-width="1" x1="0" y1="127" x2="499" y2="127"/>
<line opacity="0.1" stroke="#000000" stroke-width="1" x1="0" y1="121" x2="499" y2="121"/>
<line opacity="0.1" stroke="#000000" stroke-width="1" x1="0" y1="115" x2="499" y2="115"/>
<line opacity="0.1" stroke="#000000" stroke-width="1" x1="0" y1="109" x2="499" y2="109"/>
<line opacity="0.1" stroke="#000000" stroke-width="1" x1="0" y1="103" x2="499" y2="103"/>
<line opacity="0.1" stroke="#000000" stroke-width="1" x1="0" y1="97" x2="499" y2="97"/>
<line opacity="0.1" stroke="#000000" stroke-width="1" x1="0" y1="91" x2="499" y2="91"/>
<line opacity="0.1" stroke="#000000" stroke-width="1" x1="0" y1="85" x2="499" y2="85"/>
<line opacity="0.1" stroke="#000000" stroke-width="1" x1="0" y1="79" x2="499" y2="79"/>
<line opacity="0.1" stroke="#000000" stroke-width="1" x1="0" y1="73" x2="499" y2="73"/>
<line opacity="0.1" stroke="#000000" stroke-width="1" x1="0" y1="67" x2="499" y2="67"/>
<line opacity="0.1" stroke="#000000" stroke-width="1" x1="0" y1="61" x2="499" y2="61"/>
<line opacity="0.1" stroke="#000000" stroke-width="1" x1="0" y1="55" x2="499" y2="55"/>
<line opacity="0.1" stroke="#000000" stroke-width="1" x1="0" y1="49" x2="499" y2="49"/>
<line opacity="0.1" stroke="#000000" stroke-width="1" x1="0" y1="43" x2="499" y2="43"/>
<line opacity="0.1" stroke="#000000" stroke-width="1" x1="0" y1="37" x2="499" y2="37"/>
<line opacity="0.1" stroke="#000000" stroke-width="1" x1="0" y1="31" x2="499" y2="31"/>
<line opacity="0.1" stroke="#000000" stroke-width="1" x1="0" y1="25" x2="499" y2="25"/>
<line opacity="0.1" stroke="#000000" stroke-width="1" x1="0" y1="19" x2="499" y2="19"/>
<line opacity="0.1" stroke="#000000" stroke-width="1" x1="0" y1="13" x2="499" y2="13"/>
<line opacity="0.1" stroke="#000000" stroke-width="1" x1="0" y1="7" x2="499" y2="7"/>
<line opacity="0.1" stroke="#000000" stroke-width="1" x1="0" y1="1" x2="499" y2="1"/>
<line opacity="0.2" stroke="#000000" stroke-width="1" x1="22" y1="499" x2="22" y2="0"/>
<line opacity="0.2" stroke="#000000" stroke-width="1" x1="76" y1="499" x2="76" y2="0"/>
<line opacity="0.2" stroke="#000000" stroke-width="1" x1="130" y1="499" x2="130" y2="0"/>
<line opacity="0.2" stroke="#000000" stroke-width="1" x1="183" y1="499" x2="183" y2="0"/>
<line opacity="0.2" stroke="#000000" stroke-width="1" x1="237" y1="499" x2="237" y2="0"/>
<line opacity="0.2" stroke="#000000" stroke-width="1" x1="291" y1="499" x2="291" y2="0"/>
<line opacity="0.2" stroke="#000000" stroke-width="1" x1="345" y1="499" x2="345" y2="0"/>
<line opacity="0.2" stroke="#000000" stroke-width="1" x1="399" y1="499" x2="399" y2="0"/>
<line opacity="0.2" stroke="#000000" stroke-width="1" x1="453" y1="499" x2="453" y2="0"/>
<line opacity="0.2" stroke="#000000" stroke-width="1" x1="0" y1="487" x2="499" y2="487"/>
<line opacity="0.2" stroke="#000000" stroke-width="1" x1="0" y1="427" x2="499" y2="427"/>
<line opacity="0.2" stroke="#000000" stroke-width="1" x1="0" y1="367" x2="499" y2="367"/>
<line opacity="0.2" stroke="#000000" stroke-width="1" x1="0" y1="307" x2="499" y2="307"/>
<line opacity="0.2" stroke="#000000" stroke-width="1" x1="0" y1="247" x2="499" y2="247"/>
<line opacity="0.2" stroke="#000000" stroke-width="1" x1="0" y1="187" x2="499" y2="187"/>
<line opacity="0.2" stroke="#000000" stroke-width="1" x1="0" y1="127" x2="499" y2="127"/>
<line opacity="0.2" stroke="#000000" stroke-width="1" x1="0" y1="67" x2="499" y2="67"/>
<line opacity="0.2" stroke="#000000" stroke-width="1" x1="0" y1="7" x2="499" y2="7"/>
</svg>
